<svg width="800" height="300" viewBox="0 0 800 300" fill="none" xmlns="http://www.w3.org/2000/svg">
<g filter="url(#filter0_g_6_3)">
<g clip-path="url(#clip0_6_3)">
<path d="M111.5 86L184.412 194.333L201.958 272H264L247.5 228L111.5 86Z" fill="#7DB29A"/>
<path d="M142 170C142 151.692 131.703 68 119 68C106.297 68 96 82.8418 96 101.15L93 251.5C93 276 106.297 272 119 272C131.703 272 181.5 272 152.5 238.85L142 170Z" fill="#7DB29A"/>
<path d="M168.5 167C209.093 167 242 136.779 242 99.5C242 62.2208 209.093 32 168.5 32C127.907 32 95 62.2208 95 99.5C95 136.779 127.907 167 168.5 167Z" fill="#E74C3C"/>
<path d="M173.58 22.5658C173.58 21.1488 171.883 20 169.79 20C167.697 20 166 21.1488 166 22.5658V33.4706C166 34.8876 167.697 36.0364 169.79 36.0364C171.883 36.0364 173.58 34.8876 173.58 33.4706V22.5658Z" fill="#8B4513"/>
<path d="M176.073 30.3732C179.979 31.4146 183.653 30.3588 184.277 28.015C184.902 25.6712 182.242 22.927 178.336 21.8856C174.429 20.8442 170.756 21.9 170.131 24.2438C169.507 26.5876 172.167 29.3318 176.073 30.3732Z" fill="#2ECC71"/>
<path d="M288 44L319.619 102.234L336.373 271.914H290.891L288 44Z" fill="#00874B"/>
<path d="M316.827 186.311C340.096 133.121 364.697 135.844 390.63 194.481C384.387 224.265 390.806 228.79 409.886 208.055L415.471 197.221L383.75 271.914L374.682 263.05C376.339 239.082 370.552 222.212 357.32 212.439C335.909 211.974 327.298 221.283 331.486 240.367L316.827 186.311Z" fill="#00874B"/>
<path d="M440.112 174.537L471.729 149.004L484.196 237.061L478.612 271.914H440.71L440.112 174.537Z" fill="#00874B"/>
<path d="M458.264 117.684L465.747 142.22L439.417 165.359L443.104 136.635L458.264 117.684Z" fill="#00874B"/>
<path d="M545.83 186.906L514.324 158.285L553.415 271.914H511.723L545.83 186.906Z" fill="#7DB29A"/>
<path d="M552.717 228.697C542.944 184.281 556.143 168.821 592.315 182.317C600.233 173.475 603.727 193.357 602.796 241.962L648.17 271.914H606.478L581.348 262.607C579.286 239.135 582.975 218.557 592.413 200.872C564.553 192.03 544.34 208.653 531.775 250.74L552.717 228.697Z" fill="#7DB29A"/>
<path d="M772.31 172.855C761.748 78.1413 747.143 45.0724 728.494 73.6485C700.472 64.5994 682.469 70.999 674.486 92.8472C665.114 156.131 680.687 175.628 721.205 151.338C727.705 190.392 741.79 223.525 763.459 250.735L773.351 172.76C777.913 156.231 761.225 143.681 723.288 135.108C688.226 147.491 682.149 141.024 705.058 115.708C700.892 98.0122 708.531 97.4989 727.974 114.168C741.315 68.9228 748.234 68.5841 748.73 113.152L772.31 172.855Z" fill="#7DB29A"/>
<path d="M760.78 207.481C774.411 224.237 782.089 239.165 783.816 252.265C755.825 265.364 730.459 270.651 707.718 268.124C669.816 265.597 650.865 251.7 650.865 226.432C632.25 202.029 646.911 186.835 694.847 180.851L655.756 201.596C657.549 208.046 673.57 213.067 703.819 216.659C673.57 240.861 691.157 249.705 756.582 243.19C703.667 252.032 706.395 256.551 764.767 256.748C757.056 223.903 748.146 207.481 738.039 207.481H760.78Z" fill="#7DB29A"/>
</g>
</g>
<defs>
<filter id="filter0_g_6_3" x="-4" y="-4" width="808" height="308" filterUnits="userSpaceOnUse" color-interpolation-filters="sRGB">
<feFlood flood-opacity="0" result="BackgroundImageFix"/>
<feBlend mode="normal" in="SourceGraphic" in2="BackgroundImageFix" result="shape"/>
<feTurbulence type="fractalNoise" baseFrequency="0.25 0.25" numOctaves="3" seed="420" />
<feDisplacementMap in="shape" scale="8" xChannelSelector="R" yChannelSelector="G" result="displacedImage" width="100%" height="100%" />
<feMerge result="effect1_texture_6_3">
<feMergeNode in="displacedImage"/>
</feMerge>
</filter>
<clipPath id="clip0_6_3">
<rect width="800" height="300" fill="white"/>
</clipPath>
</defs>
</svg>
